<svg width="719" height="275" viewBox="0 0 719 275" fill="none" xmlns="http://www.w3.org/2000/svg">
<path d="M548.04 88.64V213.35H518.19V193.29C507.03 207.41 490.46 215.94 470.47 215.94C432.08 215.94 403.55 185.28 403.55 144.76C403.55 104.24 432.06 73.58 470.47 73.58C490.47 73.58 507.03 82.11 518.2 96.24V88.64C518.2 80.4 524.88 73.72 533.11 73.71C541.35 73.71 548.04 80.39 548.04 88.64ZM518.17 143.87C517.94 120.75 499 102.19 475.88 102.43C475.64 102.43 475.4 102.43 475.16 102.44C451.48 103.02 434.19 121.2 434.19 144.82C434.19 168.44 452.05 187.21 476.31 187.21C500.57 187.21 518.62 168.3 518.17 143.87Z" fill="#FF5D05"/>
<path d="M574.13 274.16V88.64C574.13 80.39 580.82 73.71 589.07 73.71C597.31 73.71 603.99 80.4 604 88.64V95.95C604 96.06 604.1 96.15 604.22 96.15C604.28 96.15 604.33 96.12 604.37 96.08C615.57 81.93 632.21 73.59 652.04 73.59C690.17 73.59 718.96 104.25 718.96 144.77C718.96 185.29 690.13 215.95 652.04 215.95C632.25 215.95 615.61 207.6 604.41 193.48C604.34 193.39 604.21 193.38 604.12 193.45C604.08 193.49 604.05 193.54 604.05 193.6V274.16H574.15H574.13ZM687.86 141.41C686.46 121.6 672.74 106.21 653.63 102.99C625.42 98.23 600.56 122.63 604.4 150.97C606.75 170.12 622.1 185.06 641.31 186.89C667.48 189.66 689.71 167.65 687.86 141.4V141.41Z" fill="#FF5D05"/>
<path d="M390.24 95.66C393.91 90.13 393.32 82.61 388.46 77.72C385.62 74.89 381.89 73.52 378.17 73.58H257.98V102.98H338.41L257.86 189.09C255.21 191.76 253.72 195.37 253.71 199.13C253.71 201.46 254.28 203.66 255.27 205.61C255.3 205.68 255.33 205.75 255.37 205.82C255.49 206.05 255.63 206.27 255.77 206.5C255.89 206.7 256 206.9 256.13 207.09C256.17 207.15 256.22 207.21 256.26 207.27C256.73 207.96 257.26 208.62 257.87 209.24C258.85 210.22 259.94 211.01 261.09 211.64C261.12 211.65 261.14 211.67 261.17 211.69C261.48 211.85 261.79 212 262.1 212.14C262.22 212.2 262.34 212.26 262.47 212.31C262.71 212.41 262.95 212.49 263.19 212.57C263.4 212.65 263.61 212.73 263.83 212.79C263.98 212.84 264.14 212.87 264.3 212.91C264.61 212.99 264.91 213.07 265.22 213.14C265.25 213.14 265.28 213.14 265.32 213.15C266.18 213.31 267.06 213.41 267.97 213.41H390.57V183.48H307.94L388.51 97.83C389.16 97.16 389.75 96.44 390.25 95.66H390.24Z" fill="#FF5D05"/>
<path d="M214.25 77.34V192.87C214.25 204.58 204.76 214.07 193.05 214.07H21.2C9.49 214.07 0 204.58 0 192.87V77.34C0 70.18 3.61 63.51 9.6 59.59L95.53 3.45C102.57 -1.15 111.68 -1.15 118.72 3.45L204.65 59.59C210.64 63.5 214.25 70.18 214.25 77.34Z" fill="#6214CD"/>
<path d="M159.44 110.55L103.86 166.12H158.77V190.28H75.66C70.23 190.28 65.82 185.86 65.83 180.43C65.83 177.83 66.86 175.35 68.69 173.5L145.55 96.67C149.39 92.85 155.6 92.85 159.43 96.67C163.25 100.51 163.25 106.72 159.43 110.55H159.44Z" fill="#FF5D05"/>
<path d="M54.83 159.59L110.41 104.02H55.51V79.88H138.62C144.05 79.93 148.42 84.38 148.37 89.81C148.35 92.35 147.34 94.79 145.56 96.61L68.69 173.47C64.85 177.3 58.64 177.3 54.8 173.47C50.99 169.62 51.01 163.41 54.84 159.59H54.83Z" fill="white"/>
</svg>
